<?xml version="1.0" encoding="UTF-8"?>
<svg id="Layer_1" data-name="Layer 1" xmlns="http://www.w3.org/2000/svg" viewBox="0 0 495.22 85">
  <defs>
    <style>
      .cls-1 {
        fill: #fff;
      }

      .cls-2 {
        fill: #345779;
      }

      .cls-3 {
        fill: #ffc775;
      }

      .cls-4 {
        fill: #fc9050;
      }
    </style>
  </defs>
  <rect class="cls-4" x="18.11" y="34.34" width="450" height="18"/>
  <polygon points="468.11 34.34 472.39 34.34 495.22 43.34 472.39 52.34 468.11 52.34 468.11 34.34"/>
  <path class="cls-3" d="M18.11,34.34h-9.02S.61,33.84.03,43.34s9.04,9,9.04,9h9.04v-18Z"/>
  <g>
    <path class="cls-2" d="M87.62,0v72.87h-14l-.02-49.2-5.58,49.2h-9.93l-5.88-48.07-.02,48.07h-14V0h20.73c.62,4.38,1.25,9.54,1.9,15.49l2.28,18.54L66.78,0h20.84Z"/>
    <path class="cls-2" d="M121.75,0l9.16,72.87h-16.37l-.86-13.1h-5.73l-.96,13.1h-16.56L98.59,0h23.16ZM113.26,46.86c-.81-8.25-1.62-18.46-2.44-30.61-1.63,13.95-2.66,24.16-3.08,30.61h5.51Z"/>
    <path class="cls-2" d="M170.01,0l-8.15,72.87h-24.34L128.26,0h16.9c1.96,20.07,3.37,37.06,4.21,50.95.83-14.04,1.71-26.51,2.64-37.4l1.11-13.55h16.9Z"/>
    <path class="cls-2" d="M199.38,0l9.16,72.87h-16.37l-.86-13.1h-5.73l-.96,13.1h-16.56L176.22,0h23.16ZM190.89,46.86c-.81-8.25-1.62-18.46-2.44-30.61-1.63,13.95-2.66,24.16-3.08,30.61h5.51Z"/>
    <path class="cls-2" d="M229.64,36.73v12.56h-20.21v-12.56h20.21Z"/>
    <path class="cls-2" d="M234.21,0h11.99c7.74,0,12.97.42,15.7,1.26,2.73.84,4.8,2.22,6.22,4.14,1.42,1.92,2.31,4.06,2.66,6.41.36,2.36.53,6.98.53,13.89v25.52c0,6.54-.26,10.92-.78,13.12-.52,2.21-1.43,3.93-2.72,5.18-1.29,1.25-2.89,2.12-4.79,2.61s-4.77.74-8.6.74h-20.21V0ZM250.23,12.47v47.94c2.31,0,3.73-.55,4.26-1.64.53-1.1.8-4.07.8-8.93v-28.31c0-3.3-.09-5.42-.27-6.35-.18-.93-.58-1.61-1.22-2.05-.63-.43-1.83-.65-3.58-.65Z"/>
    <path class="cls-2" d="M311.65,44.07h-19.9v12.92c0,2.7.17,4.44.5,5.22.33.78.96,1.17,1.9,1.17,1.17,0,1.95-.52,2.34-1.55.39-1.04.59-3.04.59-6.01v-7.88h14.57v4.41c0,3.69-.2,6.53-.59,8.51s-1.31,4.1-2.76,6.35c-1.45,2.25-3.28,3.94-5.5,5.06s-5,1.69-8.35,1.69-6.11-.55-8.6-1.66c-2.49-1.11-4.42-2.63-5.8-4.57s-2.34-4.07-2.87-6.39c-.53-2.33-.8-5.71-.8-10.15v-17.42c0-5.22.6-9.34,1.79-12.36,1.19-3.02,3.14-5.33,5.86-6.93,2.71-1.6,5.83-2.41,9.36-2.41,4.31,0,7.87.97,10.67,2.9,2.8,1.94,4.77,4.5,5.9,7.7,1.13,3.2,1.69,7.69,1.69,13.48v7.92ZM296.24,34.34v-4.37c0-3.09-.14-5.09-.42-5.99-.28-.9-.85-1.35-1.71-1.35-1.07,0-1.73.38-1.98,1.15-.25.77-.38,2.83-.38,6.19v4.37h4.49Z"/>
    <path class="cls-2" d="M348.07,32.23h-13.62v-3.24c0-2.76-.13-4.51-.4-5.24-.27-.73-.93-1.1-2-1.1-.86,0-1.51.34-1.94,1.01-.43.67-.65,1.69-.65,3.04,0,1.83.11,3.17.32,4.03.22.86.86,1.79,1.94,2.81,1.08,1.02,3.29,2.51,6.64,4.46,4.46,2.58,7.4,5.01,8.79,7.29,1.39,2.28,2.09,5.6,2.09,9.95,0,4.86-.53,8.53-1.6,11.01-1.07,2.48-2.85,4.38-5.35,5.72-2.5,1.33-5.51,2-9.04,2-3.91,0-7.25-.72-10.03-2.16-2.78-1.44-4.69-3.39-5.73-5.85-1.04-2.46-1.56-6.18-1.56-11.16v-2.88h13.62v3.78c0,3.21.17,5.3.51,6.26.34.96,1.02,1.44,2.04,1.44,1.09,0,1.85-.32,2.28-.97.43-.65.65-2,.65-4.07,0-2.85-.28-4.64-.84-5.36-.58-.72-3.56-2.85-8.94-6.39-4.52-3-7.27-5.72-8.26-8.17-.99-2.45-1.48-5.35-1.48-8.71,0-4.77.53-8.29,1.6-10.56,1.07-2.27,2.87-4.01,5.42-5.24,2.55-1.23,5.51-1.85,8.89-1.85s6.2.5,8.54,1.51,4.15,2.33,5.4,3.98c1.26,1.65,2.02,3.18,2.28,4.59.27,1.41.4,3.62.4,6.62v3.47Z"/>
    <path class="cls-2" d="M369.19,0v9.5h-15.83V0h15.83ZM369.19,13.14v59.73h-15.83V13.14h15.83Z"/>
    <path class="cls-2" d="M409.64,13.14v46c0,6.21-.12,10.23-.36,12.04-.24,1.82-1.1,3.74-2.57,5.76-1.47,2.03-3.52,3.57-6.15,4.64-2.62,1.07-5.93,1.6-9.91,1.6-4.9,0-8.83-.98-11.8-2.95-2.97-1.96-4.5-5.83-4.6-11.59h14.92c0,2.64.81,3.96,2.44,3.96,1.17,0,1.94-.41,2.32-1.22.38-.81.57-2.51.57-5.09v-4.51c-1.32,1.41-2.71,2.48-4.17,3.2-1.46.72-2.99,1.08-4.59,1.08-2.77,0-5.04-.66-6.83-1.98-1.79-1.32-3.01-3.05-3.67-5.2-.66-2.15-.99-5.2-.99-9.16v-21.7c0-5.67.86-9.75,2.59-12.24,1.72-2.49,4.35-3.74,7.88-3.74,1.93,0,3.68.47,5.27,1.4,1.59.93,3,2.33,4.24,4.19l1.1-4.51h14.31ZM394.23,28.99c0-2.73-.13-4.47-.4-5.22-.27-.75-.86-1.13-1.77-1.13s-1.52.43-1.88,1.28c-.37.85-.55,2.54-.55,5.06v20.07c0,2.67.14,4.4.42,5.2.28.8.86,1.19,1.75,1.19,1.01,0,1.67-.48,1.98-1.44.3-.96.46-3.14.46-6.53v-18.5Z"/>
    <path class="cls-2" d="M430.76,13.14l-.27,5.5c1.12-2.19,2.48-3.84,4.09-4.94,1.61-1.1,3.47-1.65,5.58-1.65,2.64,0,4.79.74,6.47,2.21,1.67,1.47,2.75,3.32,3.23,5.56.48,2.24.72,5.96.72,11.19v41.86h-15.37V31.51c0-4.11-.11-6.62-.34-7.52s-.86-1.35-1.9-1.35c-1.09,0-1.78.52-2.06,1.55s-.42,3.8-.42,8.3v40.37h-15.37V13.14h15.64Z"/>
  </g>
  <polygon class="cls-1" points="495.22 43.34 480.74 37.64 479.61 39.84 481.61 42.84 479.61 45.84 480.74 49.05 495.22 43.34"/>
</svg>