<?xml version="1.0" encoding="UTF-8"?>
<svg id="Layer_1" data-name="Layer 1" xmlns="http://www.w3.org/2000/svg" viewBox="0 0 558.89 90">
  <defs>
    <style>
      .cls-1 {
        fill: #fff;
      }

      .cls-2 {
        fill: #345779;
      }

      .cls-3 {
        fill: #ffc775;
      }

      .cls-4 {
        fill: #fc9050;
      }
    </style>
  </defs>
  <rect class="cls-4" x="24.56" y="34.91" width="499.78" height="29.99"/>
  <polygon points="523.89 34.91 529.42 34.91 558.89 49.91 529.42 64.9 523.89 64.9 523.89 34.91"/>
  <path class="cls-3" d="M25,34.91h-12.45S.84,34.08.04,49.91c-.81,15.81,12.48,14.99,12.48,14.99h12.48v-29.99Z"/>
  <polygon class="cls-1" points="557.28 49.91 539.65 40.91 538.28 44.39 540.71 49.12 538.28 53.85 539.65 58.91 557.28 49.91"/>
  <g>
    <path class="cls-2" d="M138.06,11.37l-7.2,37.26h-18.42l-7.62-37.26h13.86l2.88,22.86h.72l2.58-22.86h13.2Z"/>
    <path class="cls-2" d="M172.44,48.63h-12.6l-1.2-5.76h-6.66l-1.26,5.76h-12.06l7.74-37.26h18.3l7.74,37.26ZM157.74,35.13l-2.28-12.48h-.24l-2.34,12.48h4.86Z"/>
    <path class="cls-2" d="M206.46,48.63h-12.24l-7.56-14.7h-.42v14.7h-11.4V11.37h12.66l7.08,15.18h.36v-15.18h11.52v37.26Z"/>
    <path class="cls-2" d="M209.46,23.31c0-3.96,1.2-7.04,3.6-9.24,2.4-2.2,5.73-3.3,9.99-3.3s8.65.4,13.17,1.2l-1.38,10.56c-5-1-8.28-1.5-9.84-1.5s-2.34.48-2.34,1.44c0,.36.12.61.36.75.24.14.42.25.54.33.12.08.35.18.69.3.34.12.62.23.84.33.22.1.94.4,2.16.9,1.22.5,2.14.9,2.76,1.2.62.3,1.47.79,2.55,1.47,3.12,2.04,4.68,5.04,4.68,9s-1.18,7.03-3.54,9.21c-2.36,2.18-5.75,3.27-10.17,3.27s-8.75-.54-12.99-1.62l.84-10.14c5.36,1.36,8.98,2.04,10.86,2.04,1.24,0,1.86-.44,1.86-1.32,0-.4-.15-.72-.45-.96-.3-.24-.74-.5-1.32-.78-.58-.28-1.43-.65-2.55-1.11-1.12-.46-2.06-.86-2.82-1.2-.76-.34-1.66-.87-2.7-1.59-3.2-2.2-4.8-5.28-4.8-9.24Z"/>
    <path class="cls-2" d="M255.42,36.99h-2.58v11.64h-12.6V11.37h14.52c4.92,0,8.5,1,10.74,3,2.24,2,3.36,5.3,3.36,9.9s-1.08,7.87-3.24,9.81c-2.16,1.94-5.56,2.91-10.2,2.91ZM256.05,28.29c.34-.64.51-1.72.51-3.24s-.19-2.6-.57-3.24c-.38-.64-1.09-.96-2.13-.96h-1.26v8.4h1.56c.92,0,1.55-.32,1.89-.96Z"/>
    <path class="cls-2" d="M301.2,23.37c0,2.4-.39,4.31-1.17,5.73-.78,1.42-1.99,2.67-3.63,3.75l5.58,15.78h-13.26l-3.72-12.84h-.96v12.84h-12.3V11.37h15.9c4.64,0,8.06.97,10.26,2.91,2.2,1.94,3.3,4.97,3.3,9.09ZM287.24,27.66c.38-.54.57-1.49.57-2.85s-.2-2.3-.6-2.82c-.4-.52-1.02-.78-1.86-.78h-1.56v7.26h1.5c.92,0,1.57-.27,1.95-.81Z"/>
    <path class="cls-2" d="M318.53,48.63h-12.66V11.37h12.66v37.26Z"/>
    <path class="cls-2" d="M355.31,48.63h-12.24l-7.56-14.7h-.42v14.7h-11.4V11.37h12.66l7.08,15.18h.36v-15.18h11.52v37.26Z"/>
    <path class="cls-2" d="M376.55,39.45c.72,0,1.68-.12,2.88-.36v-3.6h-3v-8.28h14.16v21.42h-9.06l-.9-1.92h-.24c-2.08,1.68-4.54,2.52-7.38,2.52-9.36,0-14.04-6.32-14.04-18.96,0-6.32,1.27-11.15,3.81-14.49,2.54-3.34,6.83-5.01,12.87-5.01,4.48,0,8.72.62,12.72,1.86l-1.98,11.28c-4.48-1.24-7.69-1.86-9.63-1.86s-3.22.64-3.84,1.92c-.62,1.28-.93,3.46-.93,6.54s.29,5.34.87,6.78,1.81,2.16,3.69,2.16Z"/>
    <path class="cls-2" d="M419.39,48.63h-23.76V11.37h24.6l-.84,9.9h-10.92v4.5h9.54v8.64h-9.54v5.1h11.76l-.84,9.12Z"/>
    <path class="cls-2" d="M445.67,48.63h-22.38V11.37h12.84v27.6h10.38l-.84,9.66Z"/>
    <path class="cls-2" d="M218.22,69.19c0,12.96-5.92,19.44-17.76,19.44h-14.46v-37.26h14.76c6.36,0,10.86,1.53,13.5,4.59,2.64,3.06,3.96,7.47,3.96,13.23ZM204.24,77.17c.6-1.4.9-3.73.9-6.99s-.33-5.58-.99-6.96c-.66-1.38-2.03-2.07-4.11-2.07h-1.26v18.12h1.5c2.04,0,3.36-.7,3.96-2.1Z"/>
    <path class="cls-2" d="M245.7,88.63h-23.76v-37.26h24.6l-.84,9.9h-10.92v4.5h9.54v8.64h-9.54v5.1h11.76l-.84,9.12Z"/>
    <path class="cls-2" d="M247.8,63.31c0-3.96,1.2-7.04,3.6-9.24,2.4-2.2,5.73-3.3,9.99-3.3s8.65.4,13.17,1.2l-1.38,10.56c-5-1-8.28-1.5-9.84-1.5s-2.34.48-2.34,1.44c0,.36.12.61.36.75.24.14.42.25.54.33.12.08.35.18.69.3.34.12.62.23.84.33.22.1.94.4,2.16.9,1.22.5,2.14.9,2.76,1.2.62.3,1.47.79,2.55,1.47,3.12,2.04,4.68,5.04,4.68,9s-1.18,7.03-3.54,9.21c-2.36,2.18-5.75,3.27-10.17,3.27s-8.75-.54-12.99-1.62l.84-10.14c5.36,1.36,8.98,2.04,10.86,2.04,1.24,0,1.86-.44,1.86-1.32,0-.4-.15-.72-.45-.96-.3-.24-.74-.5-1.32-.78-.58-.28-1.43-.65-2.55-1.11-1.12-.46-2.06-.86-2.82-1.2-.76-.34-1.66-.87-2.7-1.59-3.2-2.2-4.8-5.28-4.8-9.24Z"/>
    <path class="cls-2" d="M291.6,88.63h-12.66v-37.26h12.66v37.26Z"/>
    <path class="cls-2" d="M313.2,79.45c.72,0,1.68-.12,2.88-.36v-3.6h-3v-8.28h14.16v21.42h-9.06l-.9-1.92h-.24c-2.08,1.68-4.54,2.52-7.38,2.52-9.36,0-14.04-6.32-14.04-18.96,0-6.32,1.27-11.15,3.81-14.49,2.54-3.34,6.83-5.01,12.87-5.01,4.48,0,8.72.62,12.72,1.86l-1.98,11.28c-4.48-1.24-7.69-1.86-9.63-1.86s-3.22.64-3.84,1.92c-.62,1.28-.93,3.46-.93,6.54s.29,5.34.87,6.78c.58,1.44,1.81,2.16,3.69,2.16Z"/>
    <path class="cls-2" d="M363.89,88.63h-12.24l-7.56-14.7h-.42v14.7h-11.4v-37.26h12.66l7.08,15.18h.36v-15.18h11.52v37.26Z"/>
  </g>
</svg>